
<svg xmlns="http://www.w3.org/2000/svg" xmlns:xlink="http://www.w3.org/1999/xlink" viewBox="0 0 564 47">
  <defs>
    <style>
      .cls-1 {
        fill: #fff;
        stroke: #707070;
      }

      .cls-2 {
        clip-path: url(#clip-path);
      }

      .cls-3 {
        fill: #47463f;
      }

      .cls-4 {
        clip-path: url(#clip-path-2);
      }
    </style>
    <clipPath id="clip-path">
      <rect id="Rectangle_1639" data-name="Rectangle 1639" class="cls-1" width="319" height="47" transform="translate(679 612)"/>
    </clipPath>
    <clipPath id="clip-path-2">
      <rect id="Rectangle_1691" data-name="Rectangle 1691" class="cls-1" width="274" height="47" transform="translate(679 612)"/>
    </clipPath>
  </defs>
  <g id="Group_1477" data-name="Group 1477" transform="translate(-679 -672)">
    <g id="Group_1426" data-name="Group 1426">
      <g id="Mask_Group_77" data-name="Mask Group 77" class="cls-2" transform="translate(0 60)">
        <g id="Group_1420" data-name="Group 1420" transform="translate(680.422 617.033)">
          <g id="Group_1025" data-name="Group 1025" transform="translate(0)">
            <rect id="Rectangle_567" data-name="Rectangle 567" class="cls-3" width="1.853" height="28.763" rx="0.927" transform="translate(0 27.731)"/>
            <rect id="Rectangle_567-2" data-name="Rectangle 567" class="cls-3" width="1.853" height="41.596" rx="0.927" transform="translate(6.487 21.314)"/>
            <rect id="Rectangle_567-3" data-name="Rectangle 567" class="cls-3" width="1.853" height="20.168" rx="0.927" transform="translate(12.974 32.028)"/>
            <rect id="Rectangle_567-4" data-name="Rectangle 567" class="cls-3" width="1.853" height="7.563" rx="0.927" transform="translate(19.461 38.331)"/>
            <rect id="Rectangle_567-5" data-name="Rectangle 567" class="cls-3" width="1.853" height="20.168" rx="0.927" transform="translate(25.948 32.028)"/>
            <rect id="Rectangle_567-6" data-name="Rectangle 567" class="cls-3" width="1.853" height="41.596" rx="0.927" transform="translate(32.435 21.314)"/>
            <rect id="Rectangle_567-7" data-name="Rectangle 567" class="cls-3" width="1.853" height="27.731" rx="0.927" transform="translate(38.922 28.247)"/>
            <rect id="Rectangle_567-8" data-name="Rectangle 567" class="cls-3" width="1.853" height="41.596" rx="0.927" transform="translate(45.409 21.314)"/>
            <rect id="Rectangle_567-9" data-name="Rectangle 567" class="cls-3" width="1.853" height="55.461" rx="0.927" transform="translate(51.896 14.382)"/>
            <rect id="Rectangle_567-10" data-name="Rectangle 567" class="cls-3" width="1.853" height="28.763" rx="0.927" transform="translate(58.383 27.731)"/>
            <rect id="Rectangle_567-11" data-name="Rectangle 567" class="cls-3" width="1.853" height="56.494" rx="0.927" transform="translate(64.87 13.865)"/>
            <rect id="Rectangle_567-12" data-name="Rectangle 567" class="cls-3" width="1.853" height="28.763" rx="0.927" transform="translate(71.357 27.731)"/>
            <rect id="Rectangle_567-13" data-name="Rectangle 567" class="cls-3" width="1.853" height="66.806" rx="0.927" transform="translate(77.844 8.709)"/>
            <rect id="Rectangle_567-14" data-name="Rectangle 567" class="cls-3" width="1.853" height="28.763" rx="0.927" transform="translate(84.331 27.731)"/>
            <rect id="Rectangle_567-15" data-name="Rectangle 567" class="cls-3" width="1.853" height="42.629" rx="0.927" transform="translate(90.818 20.798)"/>
            <rect id="Rectangle_567-16" data-name="Rectangle 567" class="cls-3" width="1.853" height="51.68" rx="0.927" transform="translate(97.305 16.272)"/>
            <rect id="Rectangle_567-17" data-name="Rectangle 567" class="cls-3" width="1.853" height="27.731" rx="0.927" transform="translate(103.792 28.247)"/>
            <rect id="Rectangle_567-18" data-name="Rectangle 567" class="cls-3" width="1.853" height="66.806" rx="0.927" transform="translate(110.279 8.709)"/>
            <rect id="Rectangle_567-19" data-name="Rectangle 567" class="cls-3" width="1.853" height="28.763" rx="0.927" transform="translate(116.766 27.731)"/>
            <rect id="Rectangle_567-20" data-name="Rectangle 567" class="cls-3" width="1.853" height="84.225" rx="0.927" transform="translate(123.253 0)"/>
            <rect id="Rectangle_567-21" data-name="Rectangle 567" class="cls-3" width="1.853" height="56.494" rx="0.927" transform="translate(129.74 13.865)"/>
            <rect id="Rectangle_567-22" data-name="Rectangle 567" class="cls-3" width="1.853" height="28.763" rx="0.927" transform="translate(136.227 27.731)"/>
            <rect id="Rectangle_567-23" data-name="Rectangle 567" class="cls-3" width="1.853" height="64.285" rx="0.927" transform="translate(142.714 9.97)"/>
            <rect id="Rectangle_567-24" data-name="Rectangle 567" class="cls-3" width="1.853" height="40.336" rx="0.927" transform="translate(149.201 21.945)"/>
            <rect id="Rectangle_567-25" data-name="Rectangle 567" class="cls-3" width="1.853" height="22.689" rx="0.927" transform="translate(155.688 30.768)"/>
          </g>
          <g id="Group_1168" data-name="Group 1168" transform="translate(136.35)">
            <rect id="Rectangle_567-26" data-name="Rectangle 567" class="cls-3" width="1.824" height="28.763" rx="0.912" transform="translate(0 27.731)"/>
            <rect id="Rectangle_567-27" data-name="Rectangle 567" class="cls-3" width="1.824" height="20.168" rx="0.912" transform="translate(25.533 32.028)"/>
            <rect id="Rectangle_567-28" data-name="Rectangle 567" class="cls-3" width="1.824" height="41.596" rx="0.912" transform="translate(31.916 21.314)"/>
            <rect id="Rectangle_567-29" data-name="Rectangle 567" class="cls-3" width="1.824" height="27.731" rx="0.912" transform="translate(38.299 28.247)"/>
            <rect id="Rectangle_567-30" data-name="Rectangle 567" class="cls-3" width="1.824" height="41.596" rx="0.912" transform="translate(44.682 21.314)"/>
            <rect id="Rectangle_567-31" data-name="Rectangle 567" class="cls-3" width="1.824" height="55.461" rx="0.912" transform="translate(51.065 14.382)"/>
            <rect id="Rectangle_567-32" data-name="Rectangle 567" class="cls-3" width="1.824" height="28.763" rx="0.912" transform="translate(57.449 27.731)"/>
            <rect id="Rectangle_567-33" data-name="Rectangle 567" class="cls-3" width="1.824" height="56.494" rx="0.912" transform="translate(63.832 13.865)"/>
            <rect id="Rectangle_567-34" data-name="Rectangle 567" class="cls-3" width="1.824" height="28.763" rx="0.912" transform="translate(70.215 27.731)"/>
            <rect id="Rectangle_567-35" data-name="Rectangle 567" class="cls-3" width="1.824" height="66.806" rx="0.912" transform="translate(76.598 8.709)"/>
            <rect id="Rectangle_567-36" data-name="Rectangle 567" class="cls-3" width="1.824" height="28.763" rx="0.912" transform="translate(82.981 27.731)"/>
            <rect id="Rectangle_567-37" data-name="Rectangle 567" class="cls-3" width="1.824" height="42.629" rx="0.912" transform="translate(89.364 20.798)"/>
            <rect id="Rectangle_567-38" data-name="Rectangle 567" class="cls-3" width="1.824" height="51.68" rx="0.912" transform="translate(95.748 16.272)"/>
            <rect id="Rectangle_567-39" data-name="Rectangle 567" class="cls-3" width="1.824" height="27.731" rx="0.912" transform="translate(102.131 28.247)"/>
            <rect id="Rectangle_567-40" data-name="Rectangle 567" class="cls-3" width="1.824" height="66.806" rx="0.912" transform="translate(108.514 8.709)"/>
            <rect id="Rectangle_567-41" data-name="Rectangle 567" class="cls-3" width="1.824" height="28.763" rx="0.912" transform="translate(114.897 27.731)"/>
            <rect id="Rectangle_567-42" data-name="Rectangle 567" class="cls-3" width="1.824" height="78.225" rx="0.912" transform="translate(121.28 6)"/>
            <rect id="Rectangle_567-43" data-name="Rectangle 567" class="cls-3" width="1.824" height="56.494" rx="0.912" transform="translate(127.664 13.865)"/>
            <rect id="Rectangle_567-44" data-name="Rectangle 567" class="cls-3" width="1.824" height="28.763" rx="0.912" transform="translate(134.047 27.731)"/>
            <rect id="Rectangle_567-45" data-name="Rectangle 567" class="cls-3" width="1.824" height="64.285" rx="0.912" transform="translate(140.43 9.97)"/>
            <rect id="Rectangle_567-46" data-name="Rectangle 567" class="cls-3" width="1.824" height="40.336" rx="0.912" transform="translate(146.813 21.945)"/>
            <rect id="Rectangle_567-47" data-name="Rectangle 567" class="cls-3" width="1.824" height="13.865" rx="0.912" transform="translate(172.346 35.18)"/>
            <rect id="Rectangle_567-48" data-name="Rectangle 567" class="cls-3" width="1.824" height="5.042" rx="0.912" transform="translate(178.729 39.591)"/>
          </g>
        </g>
      </g>
      <g id="Mask_Group_78" data-name="Mask Group 78" class="cls-4" transform="translate(290 60)">
        <g id="Group_1425" data-name="Group 1425" transform="translate(680.422 617.033)">
          <g id="Group_1423" data-name="Group 1423" transform="translate(0)">
            <rect id="Rectangle_1640" data-name="Rectangle 1640" class="cls-3" width="1.853" height="28.763" rx="0.927" transform="translate(0 27.731)"/>
            <rect id="Rectangle_1641" data-name="Rectangle 1641" class="cls-3" width="1.853" height="41.596" rx="0.927" transform="translate(6.487 21.314)"/>
            <rect id="Rectangle_1642" data-name="Rectangle 1642" class="cls-3" width="1.853" height="20.168" rx="0.927" transform="translate(12.974 32.028)"/>
            <rect id="Rectangle_1644" data-name="Rectangle 1644" class="cls-3" width="1.853" height="20.168" rx="0.927" transform="translate(25.948 32.028)"/>
            <rect id="Rectangle_1645" data-name="Rectangle 1645" class="cls-3" width="1.853" height="41.596" rx="0.927" transform="translate(32.435 21.314)"/>
            <rect id="Rectangle_1646" data-name="Rectangle 1646" class="cls-3" width="1.853" height="27.731" rx="0.927" transform="translate(38.922 28.247)"/>
            <rect id="Rectangle_1647" data-name="Rectangle 1647" class="cls-3" width="1.853" height="41.596" rx="0.927" transform="translate(45.409 21.314)"/>
            <rect id="Rectangle_1648" data-name="Rectangle 1648" class="cls-3" width="1.853" height="55.461" rx="0.927" transform="translate(51.896 14.382)"/>
            <rect id="Rectangle_1649" data-name="Rectangle 1649" class="cls-3" width="1.853" height="28.763" rx="0.927" transform="translate(58.383 27.731)"/>
            <rect id="Rectangle_1650" data-name="Rectangle 1650" class="cls-3" width="1.853" height="56.494" rx="0.927" transform="translate(64.87 13.865)"/>
            <rect id="Rectangle_1651" data-name="Rectangle 1651" class="cls-3" width="1.853" height="28.763" rx="0.927" transform="translate(71.357 27.731)"/>
            <rect id="Rectangle_1652" data-name="Rectangle 1652" class="cls-3" width="1.853" height="66.806" rx="0.927" transform="translate(77.844 8.709)"/>
            <rect id="Rectangle_1653" data-name="Rectangle 1653" class="cls-3" width="1.853" height="28.763" rx="0.927" transform="translate(84.331 27.731)"/>
            <rect id="Rectangle_1654" data-name="Rectangle 1654" class="cls-3" width="1.853" height="42.629" rx="0.927" transform="translate(90.818 20.798)"/>
            <rect id="Rectangle_1655" data-name="Rectangle 1655" class="cls-3" width="1.853" height="51.68" rx="0.927" transform="translate(97.305 16.272)"/>
            <rect id="Rectangle_1656" data-name="Rectangle 1656" class="cls-3" width="1.853" height="27.731" rx="0.927" transform="translate(103.792 28.247)"/>
            <rect id="Rectangle_1657" data-name="Rectangle 1657" class="cls-3" width="1.853" height="66.806" rx="0.927" transform="translate(110.279 8.709)"/>
            <rect id="Rectangle_1658" data-name="Rectangle 1658" class="cls-3" width="1.853" height="28.763" rx="0.927" transform="translate(116.766 27.731)"/>
            <rect id="Rectangle_1659" data-name="Rectangle 1659" class="cls-3" width="1.853" height="67.225" rx="0.927" transform="translate(123.253 17)"/>
            <rect id="Rectangle_1660" data-name="Rectangle 1660" class="cls-3" width="1.853" height="56.494" rx="0.927" transform="translate(129.74 13.865)"/>
            <rect id="Rectangle_1661" data-name="Rectangle 1661" class="cls-3" width="1.853" height="28.763" rx="0.927" transform="translate(136.227 27.731)"/>
            <rect id="Rectangle_1662" data-name="Rectangle 1662" class="cls-3" width="1.853" height="64.285" rx="0.927" transform="translate(142.714 9.97)"/>
            <rect id="Rectangle_1663" data-name="Rectangle 1663" class="cls-3" width="1.853" height="40.336" rx="0.927" transform="translate(149.201 21.945)"/>
            <rect id="Rectangle_1664" data-name="Rectangle 1664" class="cls-3" width="1.853" height="22.689" rx="0.927" transform="translate(155.688 30.768)"/>
          </g>
          <g id="Group_1424" data-name="Group 1424" transform="translate(136.35)">
            <rect id="Rectangle_1665" data-name="Rectangle 1665" class="cls-3" width="1.824" height="28.763" rx="0.912" transform="translate(0 27.731)"/>
            <rect id="Rectangle_1666" data-name="Rectangle 1666" class="cls-3" width="1.824" height="20.168" rx="0.912" transform="translate(25.533 32.028)"/>
            <rect id="Rectangle_1667" data-name="Rectangle 1667" class="cls-3" width="1.824" height="41.596" rx="0.912" transform="translate(31.916 21.314)"/>
            <rect id="Rectangle_1668" data-name="Rectangle 1668" class="cls-3" width="1.824" height="27.731" rx="0.912" transform="translate(38.299 28.247)"/>
            <rect id="Rectangle_1669" data-name="Rectangle 1669" class="cls-3" width="1.824" height="41.596" rx="0.912" transform="translate(44.682 21.314)"/>
            <rect id="Rectangle_1670" data-name="Rectangle 1670" class="cls-3" width="1.824" height="55.461" rx="0.912" transform="translate(51.065 14.382)"/>
            <rect id="Rectangle_1671" data-name="Rectangle 1671" class="cls-3" width="1.824" height="28.763" rx="0.912" transform="translate(57.449 27.731)"/>
            <rect id="Rectangle_1672" data-name="Rectangle 1672" class="cls-3" width="1.824" height="56.494" rx="0.912" transform="translate(63.832 13.865)"/>
            <rect id="Rectangle_1673" data-name="Rectangle 1673" class="cls-3" width="1.824" height="28.763" rx="0.912" transform="translate(70.215 27.731)"/>
            <rect id="Rectangle_1674" data-name="Rectangle 1674" class="cls-3" width="1.824" height="66.806" rx="0.912" transform="translate(76.598 8.709)"/>
            <rect id="Rectangle_1675" data-name="Rectangle 1675" class="cls-3" width="1.824" height="28.763" rx="0.912" transform="translate(82.981 27.731)"/>
            <rect id="Rectangle_1676" data-name="Rectangle 1676" class="cls-3" width="1.824" height="42.629" rx="0.912" transform="translate(89.364 20.798)"/>
            <rect id="Rectangle_1677" data-name="Rectangle 1677" class="cls-3" width="1.824" height="51.68" rx="0.912" transform="translate(95.748 16.272)"/>
            <rect id="Rectangle_1678" data-name="Rectangle 1678" class="cls-3" width="1.824" height="27.731" rx="0.912" transform="translate(102.131 28.247)"/>
            <rect id="Rectangle_1679" data-name="Rectangle 1679" class="cls-3" width="1.824" height="55.806" rx="0.912" transform="translate(108.514 19.709)"/>
            <rect id="Rectangle_1680" data-name="Rectangle 1680" class="cls-3" width="1.824" height="28.763" rx="0.912" transform="translate(114.897 27.731)"/>
            <rect id="Rectangle_1681" data-name="Rectangle 1681" class="cls-3" width="1.824" height="53.225" rx="0.912" transform="translate(121.28 31)"/>
            <rect id="Rectangle_1682" data-name="Rectangle 1682" class="cls-3" width="1.824" height="34.494" rx="0.912" transform="translate(127.664 35.865)"/>
          </g>
        </g>
      </g>
    </g>
  </g>
</svg>
